# xmcd
#
# Track frame offsets: 
#        182
#        21015
#        30452
#        51295
#        67990
#        87430
#        95862
#        112115
#        123067
#        135990
#        147732
#        158277
#        175982
#        188795
#        205065
#        221815
#        241017
#        261445
#        281525
#        296405
#
# Disc length: 4167 seconds
#
# Revision: 0
# Processed by: cddbd v1.5.2PL0 Copyright (c) Steve Scherf et al.
# Submitted via: ExactAudioCopy v0.99pb5
#
DISCID=24104514
DTITLE=Romance d'Opera - Enrico Caruso
DYEAR=1996
DGENRE=
TTITLE0=Se quel guerrier io fossi - Celeste Aida
TTITLE1=Questa o qella
TTITLE2=Ella mi fu rapita - parmi veder le lagrime
TTITLE3=La fleur qu tu m'avais jetee
TTITLE4=Una furtiva lacrima
TTITLE5=Amor ti vieta
TTITLE6=Angelo casto e bel
TTITLE7=Apri la tua finistra
TTITLE8=Di tu si fedele
TTITLE9=Chiudo gli icchi e nel pensier
TTITLE10=Ora e per sempre addio
TTITLE11=O tu che in seno agli angeli
TTITLE12=Donna non vidi mai
TTITLE13=Ml reggendo all'aspro assalto
TTITLE14=Miserere... Ah, che la morte ognora
TTITLE15=Qual volutta trascorrere
TTITLE16=Je crois entendre encore
TTITLE17=Je suis seul... Ah, fuyez douce image
TTITLE18=No, pagliaccio non son
TTITLE19=O paradiso
EXTD=
EXTT0=
EXTT1=
EXTT2=
EXTT3=
EXTT4=
EXTT5=
EXTT6=
EXTT7=
EXTT8=
EXTT9=
EXTT10=
EXTT11=
EXTT12=
EXTT13=
EXTT14=
EXTT15=
EXTT16=
EXTT17=
EXTT18=
EXTT19=
PLAYORDER=
